<?xml version="1.0" encoding="utf-8"?>
<!-- Generator: Adobe Illustrator 24.2.0, SVG Export Plug-In . SVG Version: 6.00 Build 0)  -->
<svg version="1.1" id="_x31_953.213.24_x5F_full_xA0_Immagine_1_"
	 xmlns="http://www.w3.org/2000/svg" xmlns:xlink="http://www.w3.org/1999/xlink" x="0px" y="0px" viewBox="0 0 2062.5 1032.9"
	 style="enable-background:new 0 0 2062.5 1032.9;" xml:space="preserve">
<style type="text/css">
	.st0{fill:#FFFFFF;}
</style>
<rect width="1909.6" height="1032.9"/>
<path d="M405,1016.1c2.2-2.6,3.3-9.1,3.3-19.4v-89.4v-2.6V48V35c0-9.5-1.1-15.5-3.3-18.1s-7.6-4.3-16.2-5.2L388.7,0h-37.5v1032.9
	h36.3v-11.7C397,1020.4,402.8,1018.7,405,1016.1z"/>
<path d="M935,1016.1c2.2-2.6,3.3-9.1,3.3-19.4v-89.4v-2.6V48V35c0-9.5-1.1-15.5-3.3-18.1s-7.6-4.3-16.2-5.2L918.7,0h-37.5v1032.9
	h36.3v-11.7C927.1,1020.4,932.9,1018.7,935,1016.1z"/>
<path d="M843.7,80.3c-0.9-19.9-5.6-36.5-14.3-49.9c-8.6-13.4-19.9-20.1-33.7-20.1c-12.1,0-22,5.8-29.8,17.5
	c-7.8,11.7-11.7,28.3-11.7,49.9v2.6c0,97.6,0,243.2,0,436.8s0,338.7,0,435.5c0.9,19.9,5.6,36.5,14.3,49.9
	c8.6,13.4,20.3,20.1,35,20.1c11.2,0,21-5.8,29.2-17.5c8.2-11.7,12.3-27.9,12.3-48.6v-3.9V80.3H843.7z"/>
<path d="M171.1,0v11.7c-8.7,0.9-14.1,2.6-16.2,5.2s-3.2,8.6-3.2,18.1v19.4v933.1v10.4c0,9.5,1.1,15.5,3.2,18.1s7.6,4.3,16.2,5.2
	v11.7h15.5V0H171.1z"/>
<path d="M569.6,1016.1c2.2-2.6,3.3-9.1,3.3-19.4v-89.4v-2.6V48V35c0-9.5-1.1-15.5-3.3-18.1s-7.6-4.3-16.2-5.2L553.3,0h-37.5v476.9
	c-1.7,16.4-11.7,28.5-29.8,36.3c9.5,3.5,14.3,9.5,14.3,18.1c6.9,109.7,15.1,254,24.6,432.9c0.9,20.8,5.6,40.6,14.3,59.6
	c-0.9,0.9-1.3,2.2-1.3,3.9c0,1.7-1.4,4.3-2.2,5.2h16.5v-11.7C561.6,1020.4,567.4,1018.7,569.6,1016.1z"/>
<path d="M680.4,0v476.9c-1.7,16.4-11.7,28.5-29.8,36.3c9.5,3.5,14.3,9.5,14.3,18.1c6.9,109.7,15.1,254,24.6,432.9
	c0.9,20.8,5.6,40.6,14.3,59.6c-0.9,0.9-1.3,2.2-1.3,3.9c0,1.7-1.4,4.3-2.2,5.2h16.5V0H680.4z"/>
<path d="M313.6,80.3c-0.9-19.9-5.6-36.5-14.3-49.9c-8.6-13.4-19.9-20.1-33.7-20.1c-12.1,0-22,5.8-29.8,17.5
	c-7.8,11.7-11.7,28.3-11.7,49.9v2.6c0,97.6,0,243.2,0,436.8s0,338.7,0,435.5c0.9,19.9,5.6,36.5,14.3,49.9
	c8.6,13.4,20.3,20.1,35,20.1c11.2,0,21-5.8,29.2-17.5c8.2-11.7,12.3-27.9,12.3-48.6v-3.9V80.3H313.6z"/>
<path d="M1408.1,0c5.2,111.5,13.4,279.3,24.6,503.5c11.2,224.2,19.9,392,25.9,503.5c4.3,8.7,11.7,13.4,22,14.3v11.7h14.2V0H1408.1z"
	/>
<path d="M17.5,1016.1c2.2-2.6,3.3-8.6,3.3-18.1v-10.4V54.4V35c0-9.5-1.1-15.5-3.3-18.1s-8-4.3-17.5-5.2v1021.3h1.2l0.1-11.7
	C9.9,1020.4,15.3,1018.7,17.5,1016.1z"/>
<polygon points="1374.4,632.4 1408.1,632.4 1391.2,302 "/>
<path d="M1344.6,999.2c6-110.6,14.7-276.7,25.9-498.3S1390,110.6,1395.2,0h-30.6v11.7c-10.4,1.7-18.1,6.5-23.3,14.3
	c-3.5,6.9-5.2,13.8-5.2,20.7c-11.2,218.6-28.2,549.1-50.7,986.3h33.2v-11.7C1334.2,1019.5,1342.8,1012.2,1344.6,999.2z"/>
<g>
	<path d="M1728.2,11.7c-8.7,0.9-14,2.6-16.2,5.2s-3.2,9.5-3.2,20.7v45.4v869.6v3.9c0,38.9,13,58.3,38.9,58.3
		c27.6,0,41.5-20.7,41.5-62.2V82.9V59.6c0-13-0.9-24.2-2.6-33.7c-1.7-8.6-9.5-13.4-23.3-14.3V3.9V0h-35v3.9V11.7z"/>
	<path d="M1676.3,82.9V37.6c0-11.2-1.1-18.1-3.3-20.7s-8-4.3-17.5-5.2V3.9V0h-21.7c2.6,14.7,5.3,34.1,6.1,45.4L1631,48
		c-6.9-25.1-22-37.6-45.4-37.6c-16.4,0-29.4,6.7-38.9,20.1c-9.5,13.4-14.3,29.6-14.3,48.6c0,1.7,0,3,0,3.9v867
		c0.9,20.7,6.5,37.4,16.8,49.9s23.3,18.8,38.9,18.8c19,0,35-12.1,48-36.3l7.8,3.9c-4.3,15.6-12.2,37.2-16.5,46.7h48.9v-80.3V82.9z"
		/>
	<path d="M1853.2,16.8c-2.2-2.6-7.6-4.3-16.2-5.2V0h-14.3v3.9v7.8c-12.1,0.9-18.8,5.6-20.1,14.3s-1.9,19.9-1.9,33.7v23.3v950h36.3
		v-14.3c8.6-0.9,14-2.6,16.2-5.2s3.3-8.6,3.3-18.1v-42.8V82.9V36.3C1856.5,25.9,1855.4,19.4,1853.2,16.8z"/>
</g>
<g>
	<path class="st0" d="M98.5,11.7c9.5,0.9,15.3,2.6,17.5,5.2s3.3,8.6,3.3,18.1v19.4v456.2H53.1V54.4V35c0-9.5,1.1-15.5,3.2-18.1
		s7.5-4.3,16.2-5.2l0-11.7H0v11.7c9.5,0.9,15.3,2.6,17.5,5.2s3.3,8.6,3.3,18.1v19.4v933.1v10.4c0,9.5-1.1,15.5-3.3,18.1
		s-7.6,4.3-16.2,5.2l-0.1,11.7h71.4l-0.1-11.7c-8.7-0.9-14-2.6-16.2-5.2s-3.2-8.6-3.2-18.1v-10.4v-464h66.1v464v10.4
		c0,9.5-1.1,15.5-3.3,18.1s-8,4.3-17.5,5.2l-0.1,11.7h72.7v-11.7c-8.7-0.9-14.1-2.6-16.2-5.2s-3.2-8.6-3.2-18.1v-10.4V54.4V35
		c0-9.5,1.1-15.5,3.2-18.1s7.6-4.3,16.2-5.2V0H98.5L98.5,11.7z"/>
	<path class="st0" d="M716.7,1032.9h164.6V0H716.7V1032.9z M754.3,517.1c0-193.5,0-339.1,0-436.8v-2.6c0-21.6,3.9-38.2,11.7-49.9
		c7.8-11.7,17.7-17.5,29.8-17.5c13.8,0,25,6.7,33.7,20.1c8.6,13.4,13.4,30,14.3,49.9h1.3v872.2v3.9c0,20.8-4.1,37-12.3,48.6
		c-8.2,11.7-17.9,17.5-29.2,17.5c-14.7,0-26.4-6.7-35-20.1c-8.6-13.4-13.4-30-14.3-49.9C754.3,855.8,754.3,710.6,754.3,517.1z"/>
	<path class="st0" d="M1030.3,531.4c0-8.6-4.8-14.7-14.3-18.1c18.1-7.8,28.1-19.9,29.8-36.3V0H918.7l0.1,11.7
		c8.6,0.9,14,2.6,16.2,5.2s3.3,8.6,3.3,18.1v13v856.7v2.6v89.4c0,10.4-1.1,16.8-3.3,19.4s-8,4.3-17.5,5.2v11.7h72.6l0-11.7
		c-8.7-0.9-14-2.6-16.2-5.2s-3.2-9.1-3.2-19.4v-14.3V548.2v-24.6h3.9h2.6h3.9h2.6h6.5h3.9c1.7,0,3.5,0.4,5.2,1.3
		c1.7,0.9,3,2.2,3.9,3.9c0.9,1.7,1.7,3.5,2.6,5.2v2.6c0,0.9,0,2.2,0,3.9c0,1.7,0,3,0,3.9c6.9,104.5,14.7,312.3,19.9,488.6h40
		c0.9-0.9,2.2-3.5,2.2-5.2c0-1.7,0.4-3,1.3-3.9c-8.6-19-13.4-38.9-14.3-59.6C1045.4,785.4,1037.2,641.1,1030.3,531.4z M1010.9,476.9
		c0,13-3.5,22.5-10.4,28.5c-5.2,4.3-13.4,6.5-24.6,6.5h-6.5v-35V48V24.6c0-5.2,0.9-8.2,2.6-9.1c1.7-1.7,5.2-2.6,10.4-2.6
		c7.8,0,14.5,2.8,20.1,8.4c5.6,5.6,8.4,14.5,8.4,26.6V476.9z"/>
	<path class="st0" d="M1341.3,25.9c5.2-7.8,13-12.5,23.3-14.3V0h-57.2l0.2,11.7c12.1,1.7,18.2,5.2,18.2,10.4
		c-3.5,78.6-9.3,196.3-17.5,353.2c-8.2,156.8-14,274.1-17.5,351.9c-4.3-78.6-10.4-196.5-18.2-353.8s-13.8-275.2-18.1-353.8
		c0-3.5,5.2-6,15.5-7.8l0-11.7h-71.3v11.7c7.8,0.9,13.4,3,16.8,6.5c5.2,5.2,7.8,11.7,7.8,19.4c11.2,220.3,28.2,553.8,50.6,995.3
		h11.5c22.5-437.2,39.4-767.7,50.7-986.3C1336.2,39.8,1337.9,32.8,1341.3,25.9z"/>
	<path class="st0" d="M1458.6,1007c-6.1-111.5-14.7-279.3-25.9-503.5c-11.2-224.2-19.4-392-24.6-503.5h-12.8
		c-5.2,110.6-13.5,279.3-24.8,500.9s-19.9,387.7-25.9,498.3c-1.7,13-10.4,20.3-25.9,22v11.7h54.6l-0.1-11.7
		c-12.1-0.9-18.2-3.9-18.2-9.1c1.7-40.6,4.8-101.7,9.1-183.4c4.3-81.7,7.3-142.8,9.1-183.4h35c2.6,40.6,5.8,102,9.7,184
		c3.9,82.1,7.1,143.9,9.7,185.3c-0.9,4.3-6.5,6.5-16.8,6.5l0.1,11.7h69.9v-11.7C1470.3,1020.4,1462.9,1015.6,1458.6,1007z
		 M1374.4,632.4l16.8-330.5l16.8,330.5H1374.4z"/>
	<path class="st0" d="M1588.2,1018.7c-15.6,0-28.5-6.3-38.9-18.8s-16-29.2-16.8-49.9v-867c0-0.9,0-2.2,0-3.9
		c0-19,4.8-35.2,14.3-48.6c9.5-13.4,22.5-20.1,38.9-20.1c23.3,0,38.5,12.5,45.4,37.6l9.1-2.6c-0.9-11.2-3.5-30.7-6.1-45.4h-139
		v1032.9h132.5c4.3-9.5,12.2-31.1,16.5-46.7l-7.8-3.9C1623.2,1006.6,1607.2,1018.7,1588.2,1018.7z"/>
	<path class="st0" d="M1763.1,3.9v7.8c13.8,0.9,21.6,5.6,23.3,14.3c1.7,9.5,2.6,20.7,2.6,33.7v23.3v869.6
		c0,41.5-13.8,62.2-41.5,62.2c-25.9,0-38.9-19.4-38.9-58.3v-3.9V82.9V37.6c0-11.2,1.1-18.1,3.2-20.7s7.5-4.3,16.2-5.2V3.9V0h-72.6
		v3.9v7.8c9.5,0.9,15.3,2.6,17.5,5.2s3.3,9.5,3.3,20.7v45.4v869.6v80.3h124.4v-950V59.6c0-13.8,0.6-25,1.9-33.7s8-13.4,20.1-14.3
		V3.9V0h-59.6V3.9z"/>
	<path class="st0" d="M1888.9,82.9c0-31.1,0.4-46.7,1.3-46.7c0-10.4,0.9-16.8,2.6-19.4s7.3-4.3,16.9-5.2V0H1837v11.7
		c8.6,0.9,14,2.6,16.2,5.2s3.3,9.1,3.3,19.4v46.7v869.6v42.8c0,9.5-1.1,15.5-3.3,18.1s-7.6,4.3-16.2,5.2v14.3h72.6v-14.3
		c-9.5-0.9-15.3-2.6-17.5-5.2s-3.2-8.6-3.2-18.1v-42.8V82.9z"/>
	<path class="st0" d="M664.8,531.4c0-8.6-4.8-14.7-14.3-18.1c18.1-7.8,28.1-19.9,29.8-36.3V0H553.3l0.1,11.7
		c8.6,0.9,14,2.6,16.2,5.2s3.3,8.6,3.3,18.1v13v856.7v2.6v89.4c0,10.4-1.1,16.8-3.3,19.4s-8,4.3-17.5,5.2v11.7h72.6l0-11.7
		c-8.7-0.9-14-2.6-16.2-5.2s-3.2-9.1-3.2-19.4v-14.3V548.2v-24.6h3.9h2.6h3.9h2.6h6.5h3.9c1.7,0,3.5,0.4,5.2,1.3
		c1.7,0.9,3,2.2,3.9,3.9c0.9,1.7,1.7,3.5,2.6,5.2v2.6c0,0.9,0,2.2,0,3.9c0,1.7,0,3,0,3.9c6.9,104.5,14.7,312.3,19.9,488.6h40
		c0.9-0.9,2.2-3.5,2.2-5.2c0-1.7,0.4-3,1.3-3.9c-8.6-19-13.4-38.9-14.3-59.6C680,785.4,671.7,641.1,664.8,531.4z M645.4,476.9
		c0,13-3.5,22.5-10.4,28.5c-5.2,4.3-13.4,6.5-24.6,6.5h-6.5v-35V48V24.6c0-5.2,0.9-8.2,2.6-9.1c1.7-1.7,5.2-2.6,10.4-2.6
		c7.8,0,14.5,2.8,20.1,8.4c5.6,5.6,8.4,14.5,8.4,26.6V476.9z"/>
	<path class="st0" d="M500.2,531.4c0-8.6-4.8-14.7-14.3-18.1c18.1-7.8,28.1-19.9,29.8-36.3V0H388.7l0.1,11.7
		c8.6,0.9,14,2.6,16.2,5.2s3.3,8.6,3.3,18.1v13v856.7v2.6v89.4c0,10.4-1.1,16.8-3.3,19.4s-8,4.3-17.5,5.2v11.7h72.6l0-11.7
		c-8.7-0.9-14-2.6-16.2-5.2s-3.2-9.1-3.2-19.4v-14.3V548.2v-24.6h3.9h2.6h3.9h2.6h6.5h3.9c1.7,0,3.5,0.4,5.2,1.3
		c1.7,0.9,3,2.2,3.9,3.9c0.9,1.7,1.7,3.5,2.6,5.2v2.6c0,0.9,0,2.2,0,3.9c0,1.7,0,3,0,3.9c6.9,104.5,14.7,312.3,19.9,488.6h40
		c0.9-0.9,2.2-3.5,2.2-5.2c0-1.7,0.4-3,1.3-3.9c-8.6-19-13.4-38.9-14.3-59.6C515.4,785.4,507.2,641.1,500.2,531.4z M480.8,476.9
		c0,13-3.5,22.5-10.4,28.5c-5.2,4.3-13.4,6.5-24.6,6.5h-6.5v-35V48V24.6c0-5.2,0.9-8.2,2.6-9.1c1.7-1.7,5.2-2.6,10.4-2.6
		c7.8,0,14.5,2.8,20.1,8.4c5.6,5.6,8.4,14.5,8.4,26.6V476.9z"/>
	<path class="st0" d="M186.6,1032.9h164.6V0H186.6V1032.9z M224.2,517.1c0-193.5,0-339.1,0-436.8v-2.6c0-21.6,3.9-38.2,11.7-49.9
		c7.8-11.7,17.7-17.5,29.8-17.5c13.8,0,25,6.7,33.7,20.1c8.6,13.4,13.4,30,14.3,49.9h1.3v872.2v3.9c0,20.8-4.1,37-12.3,48.6
		c-8.2,11.7-17.9,17.5-29.2,17.5c-14.7,0-26.4-6.7-35-20.1c-8.6-13.4-13.4-30-14.3-49.9C224.2,855.8,224.2,710.6,224.2,517.1z"/>
</g>
<path d="M1909.6,0v11.7c-9.5,0.9-15.1,2.6-16.9,5.2s-2.6,9.1-2.6,19.4c-0.9,0-1.3,15.6-1.3,46.7v869.6v42.8c0,9.5,1.1,15.5,3.2,18.1
	s8,4.3,17.5,5.2v14.3h152.9V0H1909.6z"/>
</svg>
